<svg id="Layer_1" data-name="Layer 1" xmlns="http://www.w3.org/2000/svg" viewBox="0 0 694.77 121.12"><defs><style>.cls-1{fill:#2381e8;}</style></defs><path d="M297.23,418.94c0-22.39,17.32-40.33,38.17-40.33,11,0,19.47,4,25.14,10.58v-8.74h19.93v77.27H361.92l-.46-10c-5.82,7.2-14.56,11.5-26.06,11.5C314.55,459.26,297.23,441.47,297.23,418.94Zm63.93,0a22,22,0,1,0-21.93,22.23A21.86,21.86,0,0,0,361.16,418.94Z" transform="translate(-297.23 -339.67)"/><path d="M401.32,339.67h19.77V457.72H401.32Z" transform="translate(-297.23 -339.67)"/><path d="M437,419.09c0-22.38,17.63-40.17,40.93-40.17,23,0,40.78,17.79,40.78,40.17S501,459.26,478,459.26C454.67,459.26,437,441.47,437,419.09Zm62.4,0a21.7,21.7,0,0,0-43.39,0,21.7,21.7,0,1,0,43.39,0Z" transform="translate(-297.23 -339.67)"/><path d="M577,414.18l31.12,43.54h-25.6l-28.21-42v42H534.39v-118h19.93V413l28.21-32.51h25.6Z" transform="translate(-297.23 -339.67)"/><path d="M613.18,447.76l11.2-13.65c5.36,5.52,12.57,8.9,18.55,8.9,6.13,0,9.81-3.22,9.81-7.36,0-5.37-6.29-6.75-15.49-10-12-4.29-22.07-9.66-22.07-23.15,0-15.64,13.49-23.61,28.36-23.61,11.19,0,20.54,4.45,26.52,11l-11.65,11.8c-4.44-4.44-10.27-7.51-15.48-7.51-4.91,0-8.13,2.61-8.13,6.59,0,5.22,5.52,6.75,14.57,9.66,11.49,3.84,23.15,9.05,23.15,24.53,0,15.64-12.12,24.23-29,24.23C630.2,459.26,619.32,453.89,613.18,447.76Z" transform="translate(-297.23 -339.67)"/><path class="cls-1" d="M685.24,444.54a14.8,14.8,0,1,1,29.59,0c0,8.43-6.29,14.72-14.88,14.72A14.53,14.53,0,0,1,685.24,444.54Z" transform="translate(-297.23 -339.67)"/><path class="cls-1" d="M728.62,418.94c0-22.39,17-40.33,38.64-40.33,9.5,0,18.7,3.53,24.68,10.58V339.67h19.93V457.72H793.32l-.46-10c-5.83,7.2-14.87,11.5-25.6,11.5C745.64,459.26,728.62,441.47,728.62,418.94Zm64.09,0c0-12.73-9.82-22.54-22.08-22.54-12.42,0-22.08,9.81-22.08,22.54s9.66,22.69,22.08,22.69C782.89,441.63,792.71,431.66,792.71,418.94Z" transform="translate(-297.23 -339.67)"/><path class="cls-1" d="M907.84,422.62H847c1.54,12.57,10.43,20.54,21.77,20.54A22.46,22.46,0,0,0,888.52,432l15.94,6.59c-6.28,12.72-19.31,20.7-35.56,20.7-24.53,0-41.4-17.79-41.4-40.17s17.17-40.17,40.78-40.17c22.23,0,39.4,15.79,39.71,39.4ZM849,407.44h37.86c-3.22-7.82-9.35-12.73-18.39-12.73C859.08,394.71,852.34,399.62,849,407.44Z" transform="translate(-297.23 -339.67)"/><path class="cls-1" d="M911.05,380.45h21.31L951.53,424l19.16-43.54H992l-40.47,80.34Z" transform="translate(-297.23 -339.67)"/></svg>