<svg id="Layer_1" data-name="Layer 1" xmlns="http://www.w3.org/2000/svg" viewBox="0 0 1612.08 270.68"><polygon points="1612.08 135.34 1377.66 0 1377.66 44.58 930.06 44.58 930.06 225.82 1377.66 225.82 1377.66 270.68 1612.08 135.34" style="fill:#999"/><path d="M154.17,584.48l17.43-13.61a3,3,0,0,1,4.3.47c10.51,12.18,26.51,16,42,16,12.66,0,31.53-4.77,31.53-20.53,0-32-92.91-28.66-92.91-83.36,0-32.72,27.23-49,57.32-49,20.54,0,40.61,9.32,56.37,22.45a2.85,2.85,0,0,1,.24,4.3l-14.57,16.48c-1.43,1.43-3.11,1.43-4.3.24-10.75-9.55-24.12-15.29-38.69-15.29-14.33,0-28.18,5-28.18,21.74,0,28.66,92.9,24.84,92.9,83.35,0,32.48-32,47.77-60.66,47.77-23.65,0-48-8.12-63.29-26.75A2.85,2.85,0,0,1,154.17,584.48Z" transform="translate(-152.92 -388.68)" style="fill:#00567a"/><path d="M312.26,441.42h22.45a2.88,2.88,0,0,1,3.1,3.1v66.16c0,2.39.48,3.34,1.44,3.34.71,0,1.67-.48,2.86-1.91l54.69-68.3a6.72,6.72,0,0,1,5-2.39h27.23c1.91,0,2.39.95,1.19,2.39L377.7,509.72h0l74.51,96.49c1,1.44.48,2.39-1.43,2.39H422.6a6.72,6.72,0,0,1-5-2.39L364.32,537c-1.43-1.67-2.86-2.63-4.3-2.63a5,5,0,0,0-4.06,2.39l-13.85,17.68a19.7,19.7,0,0,0-4.3,11.94V605.5a2.88,2.88,0,0,1-3.1,3.1H312.26a2.89,2.89,0,0,1-3.11-3.1v-161A2.89,2.89,0,0,1,312.26,441.42Z" transform="translate(-152.92 -388.68)" style="fill:#00567a"/><path d="M483.72,441.42h22.45a2.89,2.89,0,0,1,3.11,3.1v161a2.89,2.89,0,0,1-3.11,3.1H483.72a2.88,2.88,0,0,1-3.1-3.1v-161A2.88,2.88,0,0,1,483.72,441.42Z" transform="translate(-152.92 -388.68)" style="fill:#00567a"/><path d="M548.68,441.42h45.37c6.69,0,10.75,0,13.62.24,33,3.34,49.67,28.42,49.67,54,0,25.32-16.48,50.87-49.67,53.74-2.87.24-6.93.24-13.62.24H580.92a6.4,6.4,0,0,0-6.69,6.69v49.2a2.88,2.88,0,0,1-3.1,3.1H548.68a2.88,2.88,0,0,1-3.11-3.1v-161A2.88,2.88,0,0,1,548.68,441.42Zm25.55,74.51a6.27,6.27,0,0,0,6.69,6.69h19.82c36.3,0,36.06-54.21,0-54.21H580.92c-4.06,0-6.69,2.86-6.69,6.92Z" transform="translate(-152.92 -388.68)" style="fill:#00567a"/><path d="M669.27,465.06V444.52a2.89,2.89,0,0,1,3.11-3.1H803.74a2.88,2.88,0,0,1,3.1,3.1v20.54a2.89,2.89,0,0,1-3.1,3.11H759.07c-4.06,0-6.92,2.63-6.92,6.68V605.5a2.89,2.89,0,0,1-3.11,3.1H726.59a3,3,0,0,1-3.1-3.1V474.85a6.27,6.27,0,0,0-6.69-6.68H672.38A2.89,2.89,0,0,1,669.27,465.06Z" transform="translate(-152.92 -388.68)" style="fill:#00567a"/><path d="M900.45,437.6c43,0,86,29.13,86,87.41s-43,87.41-86,87.41c-43.23,0-86.22-29.14-86.22-87.41S857.22,437.6,900.45,437.6Zm0,145.92c28.9,0,58-19.34,58-58.51s-29.14-58.51-58-58.51c-29.14,0-58,19.34-58,58.51S871.31,583.52,900.45,583.52Z" transform="translate(-152.92 -388.68)" style="fill:#00567a"/><path d="M1095.6,578.68l16.8-12.74a3,3,0,0,1,4.15.45c10.12,11.4,25.54,15,40.5,15,12.2,0,30.39-4.47,30.39-19.22,0-30.17-89.54-26.81-89.54-79.33a3.06,3.06,0,0,1,3.22-2.9h21a3.06,3.06,0,0,1,3.22,2.9c4.14,32.18,89.31,27,89.31,80.23,0,30.39-30.85,44.69-58.47,44.69-22.78,0-46.26-7.6-61-25A2.63,2.63,0,0,1,1095.6,578.68Zm29-134.75a74.43,74.43,0,0,1,28.54-5.59c19.8,0,39.13,8.72,54.32,21a2.61,2.61,0,0,1,.23,4l-14,15.42a2.8,2.8,0,0,1-4.14.22c-10.36-8.93-23.25-14.3-37.29-14.3a46.51,46.51,0,0,0-14.5,2c-1.84.67-3.22.23-4.14-1.34l-10.13-17.65A2.5,2.5,0,0,1,1124.6,443.93Z" transform="translate(-152.92 -388.68)" style="fill:#303030"/><path d="M1245,447.73a2.74,2.74,0,0,1,3-2.91h21.63a2.75,2.75,0,0,1,3,2.91V467a2.74,2.74,0,0,1-3,2.9H1248a2.73,2.73,0,0,1-3-2.9Zm3,43.8h21.63a2.74,2.74,0,0,1,3,2.9V598.34a2.75,2.75,0,0,1-3,2.91H1248a2.74,2.74,0,0,1-3-2.91V494.43A2.74,2.74,0,0,1,1248,491.53Z" transform="translate(-152.92 -388.68)" style="fill:#303030"/><path d="M1298.36,467V447.73a2.74,2.74,0,0,1,3-2.91h126.59a2.74,2.74,0,0,1,3,2.91V467a2.73,2.73,0,0,1-3,2.9H1301.35A2.73,2.73,0,0,1,1298.36,467Zm52.24,27.48a2.87,2.87,0,0,1,3-2.9h21.63a2.75,2.75,0,0,1,3,2.9V598.34a2.75,2.75,0,0,1-3,2.91H1353.6a2.87,2.87,0,0,1-3-2.91Z" transform="translate(-152.92 -388.68)" style="fill:#303030"/><path d="M1453,467V447.73a2.74,2.74,0,0,1,3-2.91h98.28a2.74,2.74,0,0,1,3,2.91V467a2.73,2.73,0,0,1-3,2.9H1456A2.73,2.73,0,0,1,1453,467Zm0,46.48a2.74,2.74,0,0,1,3-2.91h98.28a2.74,2.74,0,0,1,3,2.91v19.22a2.74,2.74,0,0,1-3,2.9H1456a2.74,2.74,0,0,1-3-2.9Zm3,62.79h98.28a2.74,2.74,0,0,1,3,2.91v19.21a2.74,2.74,0,0,1-3,2.91H1456a2.74,2.74,0,0,1-3-2.91V579.13A2.74,2.74,0,0,1,1456,576.22Z" transform="translate(-152.92 -388.68)" style="fill:#303030"/><circle cx="883.48" cy="138.59" r="31.34" style="fill:#0079ad"/></svg>